HIERARCHY
ROOT Hips
{
	OFFSET 0.000000 0.000000 0.000000
	CHANNELS 6 Xposition Yposition Zposition Zrotation Yrotation Xrotation 
	JOINT LowerBack
	{
		OFFSET 0.000000 0.000000 0.000000
		CHANNELS 3 Zrotation Yrotation Xrotation
		JOINT Spine
		{
			OFFSET 0.028270 2.035590 -0.193380
			CHANNELS 3 Zrotation Yrotation Xrotation
			JOINT Spine1
			{
				OFFSET 0.056720 2.048850 -0.042750
				CHANNELS 3 Zrotation Yrotation Xrotation
				JOINT Neck
				{
					OFFSET 0.000000 0.000000 0.000000
					CHANNELS 3 Zrotation Yrotation Xrotation
					JOINT Neck1
					{
						OFFSET -0.054170 1.746240 0.172020
						CHANNELS 3 Zrotation Yrotation Xrotation
						JOINT Head
						{
							OFFSET 0.104070 1.761360 -0.123970
							CHANNELS 3 Zrotation Yrotation Xrotation
							End Site
							{
								OFFSET 0.000000 0.000000 0.000000
							}
						}
					}
				}
				JOINT LeftShoulder
				{
					OFFSET 0.000000 0.000000 0.000000
					CHANNELS 3 Zrotation Yrotation Xrotation
					JOINT LeftArm
					{
						OFFSET 3.362410 1.200890 -0.311210
						CHANNELS 3 Zrotation Yrotation Xrotation
						JOINT LeftForeArm
						{
							OFFSET 4.983000 -0.000000 -0.000000
							CHANNELS 3 Zrotation Yrotation Xrotation
							JOINT LeftHand
							{
								OFFSET 3.483560 -0.000000 -0.000000
								CHANNELS 3 Zrotation Yrotation Xrotation
								JOINT LeftFingerBase
								{
									OFFSET 0.000000 0.000000 0.000000
									CHANNELS 3 Zrotation Yrotation Xrotation
									JOINT LeftHandIndex1
									{
										OFFSET 0.715260 -0.000000 -0.000000
										CHANNELS 3 Zrotation Yrotation Xrotation
										End Site
										{
											OFFSET 0.000000 0.000000 0.000000
										}
									}
								}
								JOINT LThumb
								{
									OFFSET 0.000000 0.000000 0.000000
									CHANNELS 3 Zrotation Yrotation Xrotation
									End Site
									{
										OFFSET 0.000000 0.000000 0.000000
									}
								}
							}
						}
					}
				}
				JOINT RightShoulder
				{
					OFFSET 0.000000 0.000000 0.000000
					CHANNELS 3 Zrotation Yrotation Xrotation
					JOINT RightArm
					{
						OFFSET -3.136600 1.374050 -0.404650
						CHANNELS 3 Zrotation Yrotation Xrotation
						JOINT RightForeArm
						{
							OFFSET -5.241900 -0.000000 -0.000000
							CHANNELS 3 Zrotation Yrotation Xrotation
							JOINT RightHand
							{
								OFFSET -3.444170 -0.000000 -0.000000
								CHANNELS 3 Zrotation Yrotation Xrotation
								JOINT RightFingerBase
								{
									OFFSET 0.000000 0.000000 0.000000
									CHANNELS 3 Zrotation Yrotation Xrotation
									JOINT RightHandIndex1
									{
										OFFSET -0.622530 -0.000000 -0.000000
										CHANNELS 3 Zrotation Yrotation Xrotation
										End Site
										{
											OFFSET 0.000000 0.000000 0.000000
										}
									}
								}
								JOINT RThumb
								{
									OFFSET 0.000000 0.000000 0.000000
									CHANNELS 3 Zrotation Yrotation Xrotation
									End Site
									{
										OFFSET 0.000000 0.000000 0.000000
									}
								}
							}
						}
					}
				}
			}
		}
	}
}
}
MOTION
Frames: 15
Frame Time: 0.008333
6.562039 16.990532 0.358090 17.527981 61.642777 35.627334 3.931665 -3.952948 -6.128000 0.242970 -4.508181 -3.837758 -7.019093 -4.467868 0.739923 6.708289 -14.180908 -8.128263 -4.196519 -0.318221 -0.118963 0.000000 0.000000 0.000000 2.639572 6.352223 0.919833 -35.791518 -11.698715 2.775298 -179.350029 -76.707121 179.930865 9.230904 0.547164 0.011071 -0.301083 0.463331 -0.000000 0.000000 0.000000 0.000000 0.000000 0.000000 0.000000 13.865673 -10.398458 -0.611960 67.762489 -1.324611 10.895201 0.024869 86.201928 0.004307 0.020256 2.708883 0.001256 0.027306 -0.308420 0.000000 0.000000 0.000000 0.000000 0.000000 0.000000 0.000000 
6.748469 16.962579 0.442537 17.285882 61.432272 35.566137 4.370926 -3.885206 -6.498492 0.355764 -4.491284 -3.913473 -6.936040 -4.455822 0.772360 6.449255 -14.181171 -8.208059 -4.230484 -0.320475 -0.141618 0.000000 0.000000 0.000000 2.012591 6.590750 0.919536 -36.412668 -11.751917 2.617968 -179.333962 -76.767064 179.931539 9.255609 0.193663 -0.018958 -0.304766 0.471491 -0.000000 0.000000 0.000000 0.000000 0.000000 0.000000 0.000000 13.785123 -10.364982 -0.600598 67.413231 -1.317667 10.512019 0.053103 85.638868 0.003418 -0.196694 2.634769 -0.004436 0.033229 -0.303637 0.000000 0.000000 0.000000 0.000000 0.000000 0.000000 0.000000 
6.931131 16.940941 0.527195 16.966041 61.207270 35.349653 4.790060 -3.813164 -6.754183 0.463840 -4.463760 -3.971277 -6.841094 -4.433630 0.785646 6.229071 -14.138129 -8.270279 -4.262941 -0.322577 -0.160633 0.000000 0.000000 0.000000 1.462431 6.803202 0.911570 -37.329823 -11.725906 2.514649 -179.326675 -76.949493 179.932084 9.315834 -0.170625 -0.050292 -0.308325 0.479175 -0.000000 0.000000 0.000000 0.000000 0.000000 0.000000 0.000000 13.729871 -10.292012 -0.581246 67.080776 -1.215538 10.135890 0.087706 84.965818 0.002234 -0.473457 2.549877 -0.011330 0.039733 -0.298834 0.000000 0.000000 0.000000 0.000000 0.000000 0.000000 0.000000 
7.108403 16.925447 0.612713 16.586314 60.962352 34.982213 5.163703 -3.742692 -6.878880 0.561538 -4.428149 -4.007247 -6.736567 -4.403753 0.779835 6.063526 -14.050702 -8.311907 -4.291917 -0.324374 -0.174914 0.000000 0.000000 0.000000 1.011105 6.985994 0.895274 -38.522969 -11.609571 2.464062 -179.330902 -77.264191 179.932391 9.420631 -0.527122 -0.081641 -0.311620 0.485753 -0.000000 0.000000 0.000000 0.000000 0.000000 0.000000 0.000000 13.708969 -10.182879 -0.554997 66.780969 -1.007831 9.781823 0.128352 84.182255 0.000786 -0.808170 2.449535 -0.019032 0.046681 -0.293984 0.000000 0.000000 0.000000 0.000000 0.000000 0.000000 0.000000 
7.279155 16.915791 0.699725 16.146591 60.695063 34.468063 5.479524 -3.676584 -6.873975 0.645562 -4.385989 -4.021589 -6.627266 -4.367607 0.753786 5.965274 -13.916453 -8.328133 -4.316697 -0.325873 -0.182704 0.000000 0.000000 0.000000 0.668950 7.127050 0.871275 -39.948673 -11.378670 2.457062 -179.348407 -77.705618 179.932420 9.571987 -0.858567 -0.111917 -0.314370 0.490580 -0.000000 0.000000 0.000000 0.000000 0.000000 0.000000 0.000000 13.731528 -10.037274 -0.522455 66.524134 -0.695496 9.464348 0.173871 83.299967 -0.000902 -1.193409 2.328763 -0.027037 0.053901 -0.289067 0.000000 0.000000 0.000000 0.000000 0.000000 0.000000 0.000000 
7.442657 16.911140 0.789050 15.667036 60.401978 33.834166 5.720692 -3.618201 -6.749700 0.712046 -4.339532 -4.015082 -6.517895 -4.327224 0.711255 5.942208 -13.740167 -8.318482 -4.335240 -0.326940 -0.183423 0.000000 0.000000 0.000000 0.433092 7.232012 0.840937 -41.540433 -11.039694 2.488702 -179.379794 -78.273721 179.932164 9.764123 -1.147974 -0.139931 -0.316260 0.493133 -0.000000 0.000000 0.000000 0.000000 0.000000 0.000000 0.000000 13.799640 -9.862172 -0.486670 66.324215 -0.278899 9.203355 0.222801 82.334565 -0.002773 -1.616809 2.185854 -0.034746 0.061160 -0.284087 0.000000 0.000000 0.000000 0.000000 0.000000 0.000000 0.000000 
7.598644 16.910527 0.881548 15.172719 60.082910 33.119729 5.873748 -3.570319 -6.527630 0.757926 -4.291479 -3.990814 -6.413769 -4.285104 0.656242 5.997609 -13.528217 -8.282683 -4.346106 -0.327513 -0.176527 0.000000 0.000000 0.000000 0.293693 7.302914 0.806699 -43.219801 -10.594362 2.552554 -179.424068 -78.959259 179.931734 9.981349 -1.378909 -0.163787 -0.316892 0.492933 -0.000000 0.000000 0.000000 0.000000 0.000000 0.000000 0.000000 13.912656 -9.664269 -0.450967 66.192835 0.232490 9.018158 0.273245 81.310999 -0.004746 -2.061922 2.021760 -0.041360 0.068209 -0.279094 0.000000 0.000000 0.000000 0.000000 0.000000 0.000000 0.000000 
7.747297 16.912807 0.977992 14.694855 59.740073 32.368416 5.928059 -3.535638 -6.231351 0.780924 -4.244940 -3.951994 -6.319600 -4.244158 0.594124 6.128793 -13.288225 -8.221991 -4.347880 -0.327521 -0.162033 0.000000 0.000000 0.000000 0.232442 7.348255 0.772205 -44.903298 -10.056817 2.646576 -179.478714 -79.751556 179.931293 10.200207 -1.535997 -0.181594 -0.315933 0.489640 -0.000000 0.000000 0.000000 0.000000 0.000000 0.000000 0.000000 14.064314 -9.450364 -0.419519 66.140864 0.826231 8.927826 0.323199 80.258812 -0.006751 -2.509323 1.840391 -0.046276 0.074777 -0.274174 0.000000 0.000000 0.000000 0.000000 0.000000 0.000000 0.000000 
7.889255 16.916841 1.079251 14.275250 59.377759 31.639670 5.872107 -3.516934 -5.893983 0.779048 -4.203594 -3.903371 -6.238838 -4.207965 0.531836 6.329037 -13.034949 -8.140134 -4.339345 -0.326913 -0.140659 0.000000 0.000000 0.000000 0.229241 7.374538 0.740653 -46.511733 -9.437763 2.773484 -179.539975 -80.632937 179.931088 10.388539 -1.603806 -0.190653 -0.313060 0.482972 -0.000000 0.000000 0.000000 0.000000 0.000000 0.000000 0.000000 14.245902 -9.233050 -0.396406 66.176134 1.488813 8.954363 0.370928 79.208848 -0.008680 -2.939791 1.649916 -0.049192 0.080685 -0.269458 0.000000 0.000000 0.000000 0.000000 0.000000 0.000000 0.000000 
8.025439 16.921678 1.185791 13.942744 59.002802 30.976966 5.704673 -3.515263 -5.544309 0.752422 -4.170089 -3.849149 -6.173721 -4.179108 0.475618 6.586156 -12.778213 -8.040827 -4.319891 -0.325668 -0.113367 0.000000 0.000000 0.000000 0.259839 7.394376 0.716176 -47.978784 -8.758168 2.942939 -179.603822 -81.589006 179.931408 10.508851 -1.568256 -0.188561 -0.308079 0.472793 -0.000000 0.000000 0.000000 0.000000 0.000000 0.000000 0.000000 14.444289 -9.018421 -0.385748 66.303726 2.202266 9.111523 0.414831 78.194296 -0.010444 -3.332743 1.461949 -0.050109 0.085719 -0.265129 0.000000 0.000000 0.000000 0.000000 0.000000 0.000000 0.000000 
8.157058 16.926690 1.297716 13.712736 58.621937 30.411943 5.433406 -3.530017 -5.209549 0.703109 -4.146001 -3.793428 -6.124812 -4.159155 0.431306 6.884778 -12.530320 -7.928947 -4.289386 -0.323787 -0.081563 0.000000 0.000000 0.000000 0.299023 7.418788 0.702180 -49.254953 -8.036208 3.167247 -179.666682 -82.603530 179.932521 10.520695 -1.417686 -0.173210 -0.300849 0.459056 -0.000000 0.000000 0.000000 0.000000 0.000000 0.000000 0.000000 14.644902 -8.814528 -0.390414 66.522101 2.952113 9.412671 0.453892 77.244095 -0.011963 -3.671375 1.290101 -0.049523 0.089781 -0.261381 0.000000 0.000000 0.000000 0.000000 0.000000 0.000000 0.000000 
8.285473 16.931567 1.414976 13.593036 58.240983 29.970698 5.070099 -3.559124 -4.917385 0.634084 -4.131671 -3.740795 -6.091316 -4.148527 0.403261 7.208036 -12.300694 -7.808950 -4.248324 -0.321322 -0.046581 0.000000 0.000000 0.000000 0.324635 7.456791 0.701140 -50.310334 -7.285203 3.460635 -179.726075 -83.661547 179.934708 10.384667 -1.145440 -0.143993 -0.291275 0.441823 -0.000000 0.000000 0.000000 0.000000 0.000000 0.000000 0.000000 14.833461 -8.625947 -0.412253 66.824751 3.721907 9.865295 0.487489 76.384308 -0.013169 -3.940943 1.148571 -0.048134 0.092812 -0.258410 0.000000 0.000000 0.000000 0.000000 0.000000 0.000000 0.000000 
8.412079 16.936327 1.537177 13.576673 57.863824 29.664859 4.633035 -3.598853 -4.690685 0.549535 -4.125891 -3.695029 -6.071441 -4.146105 0.395380 7.539504 -12.101275 -7.686388 -4.197501 -0.318324 -0.010098 0.000000 0.000000 0.000000 0.316337 7.516131 0.714050 -51.131365 -6.516706 3.835170 -179.780922 -84.750016 179.938141 10.066020 -0.750783 -0.102003 -0.279289 0.421241 0.000000 0.000000 0.000000 0.000000 0.000000 0.000000 0.000000 14.997950 -8.460648 -0.451607 67.199327 4.504387 10.477815 0.515740 75.631606 -0.014021 -4.133669 1.051593 -0.046939 0.094886 -0.256389 0.000000 0.000000 0.000000 0.000000 0.000000 0.000000 0.000000 
8.538039 16.941340 1.663595 13.644405 57.491334 29.487024 4.144174 -3.643690 -4.541208 0.453797 -4.125280 -3.659326 -6.063950 -4.148651 0.405134 7.863785 -11.922016 -7.560186 -4.139155 -0.314987 0.027924 0.000000 0.000000 0.000000 0.262002 7.598908 0.742911 -51.723884 -5.737748 4.298607 -179.831567 -85.861949 179.942883 9.538827 -0.241350 -0.050931 -0.264893 0.397610 -0.000000 0.000000 0.000000 0.000000 0.000000 0.000000 0.000000 15.128660 -8.304007 -0.507710 67.631618 5.269743 11.230565 0.538223 75.008677 -0.014474 -4.238394 1.009299 -0.046539 0.095861 -0.255484 0.000000 0.000000 0.000000 0.000000 0.000000 0.000000 0.000000 
8.664460 16.947077 1.793527 13.773064 57.122077 29.428086 3.625661 -3.688004 -4.480207 0.351519 -4.126156 -3.635721 -6.066078 -4.152575 0.434252 8.169048 -11.774927 -7.436181 -4.074471 -0.311359 0.065758 0.000000 0.000000 0.000000 0.150109 7.707015 0.786014 -52.101295 -4.952980 4.851713 -179.879535 -86.989431 179.948855 8.790781 0.368268 0.003429 -0.248149 0.371275 -0.000000 0.000000 0.000000 0.000000 0.000000 0.000000 0.000000 15.220486 -8.166607 -0.578076 68.101760 6.025353 12.130218 0.556019 74.514403 -0.014537 -4.259087 1.030510 -0.047532 0.095966 -0.255774 0.000000 0.000000 0.000000 0.000000 0.000000 0.000000 0.000000 
